<mxfile host="app.diagrams.net" modified="2023-12-11T21:19:58.886Z" agent="Mozilla/5.0 (Windows NT 10.0; Win64; x64) AppleWebKit/537.36 (KHTML, like Gecko) Chrome/119.0.0.0 Safari/537.36 Edg/119.0.0.0" etag="geOxleZpKkBBzKAGdjxs" version="22.1.7" type="device" pages="2">
  <diagram name="Webpage" id="UP_3P6y74GO2P0-DCxBx">
    <mxGraphModel dx="926" dy="1651" grid="1" gridSize="10" guides="1" tooltips="1" connect="1" arrows="1" fold="1" page="1" pageScale="1" pageWidth="850" pageHeight="1100" math="0" shadow="0">
      <root>
        <mxCell id="0" />
        <mxCell id="1" parent="0" />
        <mxCell id="cJhSljb7JlM3vw_JN7g8-1" value="" style="rounded=0;whiteSpace=wrap;html=1;" vertex="1" parent="1">
          <mxGeometry x="40" y="40" width="760" height="460" as="geometry" />
        </mxCell>
        <mxCell id="cJhSljb7JlM3vw_JN7g8-2" value="" style="rounded=0;whiteSpace=wrap;html=1;" vertex="1" parent="1">
          <mxGeometry x="40" y="40" width="760" height="50" as="geometry" />
        </mxCell>
        <mxCell id="cJhSljb7JlM3vw_JN7g8-5" value="logo" style="rounded=0;whiteSpace=wrap;html=1;fontSize=20;fontFamily=Courier New;fontStyle=1" vertex="1" parent="1">
          <mxGeometry x="50" y="45" width="90" height="35" as="geometry" />
        </mxCell>
        <mxCell id="cJhSljb7JlM3vw_JN7g8-6" value="" style="rounded=0;whiteSpace=wrap;html=1;" vertex="1" parent="1">
          <mxGeometry x="150" y="45" width="470" height="35" as="geometry" />
        </mxCell>
        <mxCell id="cJhSljb7JlM3vw_JN7g8-7" value="[LINK]" style="text;html=1;strokeColor=none;fillColor=none;align=center;verticalAlign=middle;whiteSpace=wrap;rounded=0;fontSize=18;fontFamily=Courier New;" vertex="1" parent="1">
          <mxGeometry x="160" y="47.5" width="60" height="30" as="geometry" />
        </mxCell>
        <mxCell id="cJhSljb7JlM3vw_JN7g8-8" value="[LINK]" style="text;html=1;strokeColor=none;fillColor=none;align=center;verticalAlign=middle;whiteSpace=wrap;rounded=0;fontSize=18;fontFamily=Courier New;" vertex="1" parent="1">
          <mxGeometry x="220" y="47.5" width="60" height="30" as="geometry" />
        </mxCell>
        <mxCell id="cJhSljb7JlM3vw_JN7g8-10" value="[LINK]" style="text;html=1;strokeColor=none;fillColor=none;align=center;verticalAlign=middle;whiteSpace=wrap;rounded=0;fontSize=18;fontFamily=Courier New;" vertex="1" parent="1">
          <mxGeometry x="280" y="47.5" width="60" height="30" as="geometry" />
        </mxCell>
        <mxCell id="cJhSljb7JlM3vw_JN7g8-12" value="[LINK]" style="text;html=1;strokeColor=none;fillColor=none;align=center;verticalAlign=middle;whiteSpace=wrap;rounded=0;fontSize=18;fontFamily=Courier New;" vertex="1" parent="1">
          <mxGeometry x="340" y="47.5" width="60" height="30" as="geometry" />
        </mxCell>
        <mxCell id="cJhSljb7JlM3vw_JN7g8-13" value="" style="rounded=0;whiteSpace=wrap;html=1;" vertex="1" parent="1">
          <mxGeometry x="60" y="100" width="520" height="390" as="geometry" />
        </mxCell>
        <mxCell id="cJhSljb7JlM3vw_JN7g8-14" value="" style="rounded=0;whiteSpace=wrap;html=1;" vertex="1" parent="1">
          <mxGeometry x="45" y="530" width="760" height="60" as="geometry" />
        </mxCell>
        <mxCell id="cJhSljb7JlM3vw_JN7g8-15" value="Return to top" style="rounded=0;whiteSpace=wrap;html=1;" vertex="1" parent="1">
          <mxGeometry x="50" y="540" width="120" height="40" as="geometry" />
        </mxCell>
        <mxCell id="cJhSljb7JlM3vw_JN7g8-16" value="PAGE TITLE" style="text;html=1;strokeColor=none;fillColor=none;align=center;verticalAlign=middle;whiteSpace=wrap;rounded=0;" vertex="1" parent="1">
          <mxGeometry x="70" y="110" width="150" height="30" as="geometry" />
        </mxCell>
        <mxCell id="cJhSljb7JlM3vw_JN7g8-17" value="" style="rounded=0;whiteSpace=wrap;html=1;" vertex="1" parent="1">
          <mxGeometry x="70" y="140" width="490" height="340" as="geometry" />
        </mxCell>
        <mxCell id="cJhSljb7JlM3vw_JN7g8-18" value="" style="rounded=0;whiteSpace=wrap;html=1;" vertex="1" parent="1">
          <mxGeometry x="80" y="190" width="460" height="280" as="geometry" />
        </mxCell>
        <mxCell id="cJhSljb7JlM3vw_JN7g8-21" value="Section Title" style="text;html=1;strokeColor=none;fillColor=none;align=center;verticalAlign=middle;whiteSpace=wrap;rounded=0;fontSize=15;" vertex="1" parent="1">
          <mxGeometry x="80" y="150" width="200" height="30" as="geometry" />
        </mxCell>
        <mxCell id="cJhSljb7JlM3vw_JN7g8-22" value="Terminal" style="rounded=0;whiteSpace=wrap;html=1;" vertex="1" parent="1">
          <mxGeometry x="590" y="100" width="200" height="200" as="geometry" />
        </mxCell>
        <mxCell id="cJhSljb7JlM3vw_JN7g8-23" value="" style="rounded=0;whiteSpace=wrap;html=1;" vertex="1" parent="1">
          <mxGeometry x="750" y="47.5" width="40" height="40" as="geometry" />
        </mxCell>
        <mxCell id="cJhSljb7JlM3vw_JN7g8-24" value="" style="endArrow=classic;html=1;rounded=0;entryX=0;entryY=0;entryDx=0;entryDy=0;exitX=0.945;exitY=0.988;exitDx=0;exitDy=0;exitPerimeter=0;" edge="1" parent="1" source="cJhSljb7JlM3vw_JN7g8-27" target="cJhSljb7JlM3vw_JN7g8-23">
          <mxGeometry width="50" height="50" relative="1" as="geometry">
            <mxPoint x="530" y="150" as="sourcePoint" />
            <mxPoint x="580" y="100" as="targetPoint" />
          </mxGeometry>
        </mxCell>
        <mxCell id="cJhSljb7JlM3vw_JN7g8-27" value="Terminal Icon" style="text;html=1;strokeColor=none;fillColor=none;align=center;verticalAlign=middle;whiteSpace=wrap;rounded=0;" vertex="1" parent="1">
          <mxGeometry x="650" y="-20" width="60" height="30" as="geometry" />
        </mxCell>
      </root>
    </mxGraphModel>
  </diagram>
  <diagram id="QTIcvkAYMbKipPzFHe3V" name="terminal">
    <mxGraphModel dx="880" dy="523" grid="1" gridSize="10" guides="1" tooltips="1" connect="1" arrows="1" fold="1" page="1" pageScale="1" pageWidth="850" pageHeight="1100" math="0" shadow="0">
      <root>
        <mxCell id="0" />
        <mxCell id="1" parent="0" />
        <mxCell id="VIbeQO54FGd8XRani1XO-1" value="" style="rounded=0;whiteSpace=wrap;html=1;" vertex="1" parent="1">
          <mxGeometry x="40" y="20" width="760" height="500" as="geometry" />
        </mxCell>
        <mxCell id="VIbeQO54FGd8XRani1XO-3" value="" style="rounded=0;whiteSpace=wrap;html=1;" vertex="1" parent="1">
          <mxGeometry x="60" y="60" width="560" height="420" as="geometry" />
        </mxCell>
        <mxCell id="VIbeQO54FGd8XRani1XO-4" value="" style="rounded=0;whiteSpace=wrap;html=1;" vertex="1" parent="1">
          <mxGeometry x="630" y="60" width="160" height="420" as="geometry" />
        </mxCell>
        <mxCell id="VIbeQO54FGd8XRani1XO-5" value="" style="rounded=0;whiteSpace=wrap;html=1;" vertex="1" parent="1">
          <mxGeometry x="70" y="70" width="540" height="400" as="geometry" />
        </mxCell>
        <mxCell id="VIbeQO54FGd8XRani1XO-7" value="Terminal Screen" style="text;html=1;strokeColor=none;fillColor=none;align=center;verticalAlign=middle;whiteSpace=wrap;rounded=0;" vertex="1" parent="1">
          <mxGeometry x="90" y="80" width="60" height="30" as="geometry" />
        </mxCell>
      </root>
    </mxGraphModel>
  </diagram>
</mxfile>
